<svg xmlns="http://www.w3.org/2000/svg" width="121" height="35" viewBox="0 0 121 35">
  <g id="Group_2409" data-name="Group 2409" transform="translate(17459 -1549)">
    <rect id="Rectangle_1715" data-name="Rectangle 1715" width="121" height="35" transform="translate(-17459 1549)" fill="none"/>
    <g id="Group_2405" data-name="Group 2405" transform="translate(-17457.354 1551)">
      <g id="Layer_2" transform="translate(0 0)">
        <g id="Group_628" data-name="Group 628">
          <path id="Path_309" data-name="Path 309" d="M108.2,13.4h0" transform="translate(-43.715 -5.506)" fill="#fff"/>
          <path id="Path_310" data-name="Path 310" d="M113.778,10.99l-2.347,1.577c-.2.126-.456.315-.522,1.073,0,.315-.13,2.4-.13,2.713s-.13,1.073-1.108.252c0,0-1.565-1.388-1.825-1.577a1.3,1.3,0,0,0-1.434-.315l-2.477.946s-1.5.568-.913-.694c.522-1.262.913-2.334,1.043-2.65a1.315,1.315,0,0,0-.2-1.2c-.13-.189-1.3-1.7-1.565-2.082,0,0-.978-1.136.652-1.073l2.8.063a.939.939,0,0,0,.913-.5c.456-.694,1.825-2.334,1.5-2.019.261-.315.782-1.009,1.108.189,0,0,.522,1.577.782,2.208a1.368,1.368,0,0,0,1.108,1.009l2.543.883c0,.063,1.174.442.065,1.2m4.759-7C112.018.643,105.5.328,101.522,1.527c-7.432,2.208-9.714,11.483-2.869,16.025.391.252.13.883-.391,1.767a15.694,15.694,0,0,1-3.977,5.047c-1.3,1.009-2.086,1.388-1.043,2.587,0,0,2.347,2.587,4.042,3.281,2.086.883,2.608.757,4.107-.694a38.7,38.7,0,0,0,5.216-7.192c1.174-2.019,2.8-2.082,2.608,1.262,0,0-.326,3.218-.391,3.849-.261,1.893-.065,2.587,1.7,2.587,0,0,3.716-.189,5.02-.379,1.825-.252,1.7-.5,2.217-1.956,2.543-7.571,2.738-20.5,2.738-20.5.2-1.64-.391-2.4-1.956-3.218" transform="translate(-38.576 -0.889)" fill="#0060ae"/>
          <path id="Path_311" data-name="Path 311" d="M34.255,26.461c-.913-.326-1.63-1.825-1.3-3.521.326-1.63,1.5-2.8,2.543-2.477.978.326,1.63,1.956,1.3,3.586-.326,1.76-1.434,2.738-2.543,2.412m8.215-6.715a7.2,7.2,0,0,0-5.346-3.586,7.509,7.509,0,0,0-7.3,3.129,7.139,7.139,0,0,0-1.043,5.868,7.228,7.228,0,0,0,9,5.411c3.39-1.043,5.281-3,5.8-6.128a7.818,7.818,0,0,0-1.108-4.694" transform="translate(-13.843 -6.79)" fill="#f48120"/>
          <path id="Path_312" data-name="Path 312" d="M141.167,15.274a18.963,18.963,0,0,0-2.673,8.867,5.674,5.674,0,0,0,2.608,5.346,6.508,6.508,0,0,0,6.846-.261c4.955-3,5.476-10.431,5.346-13.821a1.215,1.215,0,0,0-1.239-1.3c-.261,0-.913,0-1.63.065a1.261,1.261,0,0,0-1.174,1.369v.2c-.065,3.129-.261,5.933-1.565,7.628-.913,1.108-1.956,1.565-2.608,1.3a1.889,1.889,0,0,1-.913-1.956,13.188,13.188,0,0,1,1.7-4.89l.261-.456a1.37,1.37,0,0,0-.391-1.825,9.271,9.271,0,0,0-1.7-.652l-.782-.261a1.617,1.617,0,0,0-2.086.652" transform="translate(-55.923 -6.073)" fill="#72be44"/>
          <path id="Path_313" data-name="Path 313" d="M166.293,12.214a5.945,5.945,0,0,0-3.455,5.02c-.326,3.064,3.781,5.15,4.759,5.672,1.174.652,1.239,1.369.913,1.825-.456.717-1.825.522-2.8.13a5.986,5.986,0,0,1-2.477-2.021c-.522-.587-2.086,1.108-2.347,2.347-.13.587.13.848.456,1.3a10.524,10.524,0,0,0,7.628,3.847c1.108.065,3.977.13,5.933-1.7a6.88,6.88,0,0,0,1.956-3.39,4.705,4.705,0,0,0-.587-3.521,11.512,11.512,0,0,0-4.89-3.781c-2.934-1.369-2.347-2.217-1.7-2.608.587-.391,2.673-.13,4.368,1.5.848.782,2.543-1.7,1.825-2.543-2.869-3.064-7.3-3.39-9.584-2.086" transform="translate(-63.707 -5.152)" fill="#ec145a"/>
          <path id="Path_314" data-name="Path 314" d="M66.906,12.017c-1.63,5.411-8.606,17.668-11.279,18.841a1,1,0,0,1-.848.13c-1.434-.2-3.26-2.086-3.847-2.8-.261-.326-.848-1.043-.391-1.434,1.7-1.434,3.847-3.586,3.912-4.89a2.012,2.012,0,0,0-.13-.717c-.13-.2-4.564-6.324-5.02-6.976-.782-1.108-.717-1.369.065-1.825a25.806,25.806,0,0,1,3.064-1.369c.913-.391,1.043-.13,1.3.2l3.977,5.216c.261.2.522.13.782-.13.522-.652,2.673-4.694,3-5.346.391-.717,1.043-.522,1.7-.522.717,0,1.76,0,2.869.065,1.108.2,1.239.522.848,1.565" transform="translate(-21.937 -5.183)" fill="#72be44"/>
          <path id="Path_315" data-name="Path 315" d="M77.568,14.377A5.388,5.388,0,0,0,74.9,19.006c-.065,2.673,3.455,4.433,4.368,4.824,1.043.456,1.239,1.043,1.043,1.5-.261.652-.913.782-1.63.587-1.369-.261-2.412-1.5-3.455-2.151-.587-.326-1.5.848-1.63,1.956a1.058,1.058,0,0,0,.456,1.108,10.179,10.179,0,0,0,7.041,3.195,6.507,6.507,0,0,0,5.02-1.891A5.009,5.009,0,0,0,87.543,25.2a4.19,4.19,0,0,0-.782-3,7.146,7.146,0,0,0-3.325-2.543c-2.869-1.239-1.956-2.543-1.3-2.738.587-.2,1.63-.065,3.325,1.043.913.587,2.151-1.7,1.369-2.282-3.781-3-7.3-2.608-9.258-1.3" transform="translate(-31.126 -5.812)" fill="#ec145a"/>
          <path id="Path_316" data-name="Path 316" d="M7.366,9.7A73.01,73.01,0,0,0,21.448,8.579c1.3-.186,1.369.434,1.565.807a8.045,8.045,0,0,1,.456,2.545c0,.434.2,1.117-.587,1.3-2.412.683-3,.869-4.564,1.365-.717.248-.652.5-.652,1.055a42.648,42.648,0,0,0,1.891,9.5c.326.993.456,1.676-.261,1.924a34.51,34.51,0,0,1-4.238,1.179c-1.239.248-1.369-.621-1.5-1.117a58.287,58.287,0,0,1-1.63-9.868c-.065-.807-.326-1.552-1.043-1.552-.782,0-1.63.124-3.325.124-.913,0-1.369-.062-1.5-.807a27.557,27.557,0,0,1,.065-4.655c.13-.559.717-.683,1.239-.683" transform="translate(-5.991 -3.553)" fill="#ec145a"/>
          <path id="Path_317" data-name="Path 317" d="M185.343,14.956a.913.913,0,1,1,.913-.913.932.932,0,0,1-.913.913m0-1.956a1.043,1.043,0,1,0,1.043,1.043A1.03,1.03,0,0,0,185.343,13" transform="translate(-71.87 -5.377)" fill="#0060ae"/>
          <path id="Path_318" data-name="Path 318" d="M185.5,14.087h0c.326,0,.456-.065.456-.261,0-.13-.13-.2-.326-.2h-.13Zm-.2.782V13.5h.391a.489.489,0,0,1,.326.065.339.339,0,0,1,.13.261.357.357,0,0,1-.261.391l.456.652h-.261l-.391-.587h-.2v.587Z" transform="translate(-72.218 -5.556)" fill="#0060ae"/>
        </g>
      </g>
      <text id="India" transform="translate(101.353 30.897)" fill="#0060ae" font-size="6" font-family="Avenir-Medium, Avenir" font-weight="500"><tspan x="0" y="0">India</tspan></text>
    </g>
  </g>
</svg>
